# xmcd
#
# Track frame offsets:
#	150
#	15652
#	30791
#	49858
#	62991
#	77713
#	88144
#	107323
#	122072
#	132113
#
# Disc length: 1964 seconds
# Revision: 0
# Processed by: cddbd v1.5.2PL0 Copyright (c) Steve Scherf et al.
# Submitted via: dBpowerAMP V12.0
#
DISCID=7407aa0a
DTITLE=Alain Morisod - Et j'ai le mal de toi
DYEAR=1900
DGENRE=Country
TTITLE0=Et j'ai le mal de toi
TTITLE1=Blue nostalgy
TTITLE2=L'abre et l'enfant
TTITLE3=Gavotte
TTITLE4=Un matin sur la montagne
TTITLE5=Pour les yeux de candy
TTITLE6=River blue
TTITLE7=A force de rever
TTITLE8=Arlequin
TTITLE9=Et j'ai le mal de toi (instrumental)
EXTD=
EXTT0=
EXTT1=
EXTT2=
EXTT3=
EXTT4=
EXTT5=
EXTT6=
EXTT7=
EXTT8=
EXTT9=
PLAYORDER=
